<svg height="512pt" viewBox="0 -31 512.00013 512" width="512pt" xmlns="http://www.w3.org/2000/svg"><path d="m406.699219 342.300781 15 90.296875c.902343 5.402344-1.199219 10.800782-5.398438 14.101563-4.203125 3.300781-9.902343 4.199219-15 2.101562l-99.601562-39.902343c-24 7.5-49.199219 11.101562-74.699219 11.101562-124.199219 0-227-87.601562-227-195 0-107.402344 102.800781-195 227-195 135.601562 0 225 100.5 225 195 0 42.300781-15.902344 83.699219-45.300781 117.300781zm0 0" fill="#deecf1"/><path d="m406.699219 342.300781 15 90.296875c.902343 5.402344-1.199219 10.800782-5.398438 14.101563-4.203125 3.300781-9.902343 4.199219-15 2.101562l-99.601562-39.902343c-24 7.5-49.199219 11.101562-74.699219 11.101562v-390c135.601562 0 225 100.5 225 195 0 42.300781-15.902344 83.699219-45.300781 117.300781zm0 0" fill="#c6e2e7"/><g fill="#a8d3d8"><path d="m197 180h-92c-8.289062 0-15-6.707031-15-15 0-8.289062 6.710938-15 15-15h92c8.289062 0 15 6.710938 15 15 0 8.292969-6.710938 15-15 15zm0 0"/><path d="m197 240h-92c-8.289062 0-15-6.707031-15-15 0-8.289062 6.710938-15 15-15h92c8.289062 0 15 6.710938 15 15 0 8.292969-6.710938 15-15 15zm0 0"/><path d="m227 300h-122c-8.289062 0-15-6.707031-15-15 0-8.289062 6.710938-15 15-15h122c8.289062 0 15 6.710938 15 15 0 8.292969-6.710938 15-15 15zm0 0"/></g><path d="m280.058594 274.367188c-1.058594 1.058593-2.542969 2.121093-4.03125 2.757812l-42.425782 21.210938c-5.515624 2.972656-12.515624 1.910156-17.179687-2.757813-4.667969-4.664063-5.730469-11.664063-2.757813-17.179687l21.210938-42.425782c.636719-1.488281 1.695312-2.972656 2.757812-4.03125h42.425782zm0 0" fill="#ffcebf"/><path d="m280.058594 231.941406v42.425782c-1.058594 1.058593-2.542969 2.121093-4.03125 2.757812l-42.425782 21.210938c-5.515624 2.96875-12.515624 1.910156-17.179687-2.757813zm0 0" fill="#ffa78f"/><path d="m507.546875 46.882812-31.820313 31.820313h-42.425781v-42.429687l31.816407-31.820313c5.941406-5.9375 15.273437-5.9375 21.214843 0l21.214844 21.214844c5.9375 5.941406 5.9375 15.273437 0 21.214843zm0 0" fill="#54469d"/><path d="m507.546875 46.882812-31.820313 31.820313h-42.425781l63.636719-63.640625 10.609375 10.605469c5.9375 5.941406 5.9375 15.273437 0 21.214843zm0 0" fill="#392e6e"/><path d="m237.632812 231.941406 195.660157-195.664062 42.425781 42.425781-195.660156 195.664063zm0 0" fill="#f27281"/><path d="m258.84375 253.152344 195.664062-195.664063 21.210938 21.214844-195.664062 195.664063zm0 0" fill="#e63950"/></svg>